<svg width="402" height="874" viewBox="0 0 402 874" fill="none" xmlns="http://www.w3.org/2000/svg">
<rect width="402" height="874" fill="white"/>
<path d="M104.5 685.5L103 671V657.5L104.5 647.5L109.5 635L115 624L119 617L127.5 603L132 598L138 599.5L140.5 603L142 608V613.5L145.5 608L149 603L152.5 601L154.5 608L161 624L165.5 636.5L170 659L171.5 677L168.5 693.5L163 704L154.5 709L149 706.5L145.5 701L140.5 693.5L138 685.5V682L133.5 693.5L127.5 699L118 705L113 702.5L109.5 699L104.5 691V687" stroke="black"/>
</svg>
