<svg width="402" height="874" viewBox="0 0 402 874" fill="none" xmlns="http://www.w3.org/2000/svg">
<rect width="402" height="874" fill="white"/>
<path d="M209 130.5V120L229.5 118V120L231 130.5L233.5 137.5L244.5 149L263.5 159L280.5 170L287.5 175.5L280.5 178.5L272.5 186.5L267 195.5L259 212.5L251.5 228.5L241 247.5L223 273L216.5 284L211 290.5L205.5 303.5L207 294.5L205.5 279.5V258.5V243.5L207 218.5V203L211 186.5L216.5 175.5L223 168.5L229.5 164L220.5 156L214.5 145.5L209 130.5Z" stroke="black"/>
</svg>
