<svg width="402" height="874" viewBox="0 0 402 874" fill="none" xmlns="http://www.w3.org/2000/svg">
<rect width="402" height="874" fill="white"/>
<path d="M167 275L170.5 271.5L176.5 268L184.5 265.5L191 263.5H196L201 265.5L202.5 271.5V275V280.5V287.5V293L201 297H196L201 300L202.5 303V310.5V319.5V328L201 333.5M201 333.5L197 334.5H186.5H179H173M201 333.5L211 334.5M173 334.5L169 339L167 345.5V352L169 362.5L173 377.5L176.5 391.5L181 402L186.5 419L191 425.5H219L222 421L226 410.5L229 400L232.5 391.5L236.5 380L238.5 370.5L241 359V347V339L236.5 334.5H234M173 334.5L169.5 331L167 323.5V317V312.5V308.5L169.5 305L172 302.5L175.5 301L176.5 300H172H170.5L167 295.5V293L166 288V285V280.5V278.5L167 276M234 334.5L238.5 330L241 325.5V321L242.5 317V312.5L241 306.5L238.5 303L236.5 300L238.5 297L242.5 293V289L244 282.5L242.5 275L241 273L232.5 268L226 265.5L219 263.5H213L211 265.5L208 268L206 273V278.5V282.5V289L208 293L211 297L213.5 298L208 300L206 303V306.5V315V319.5V325.5L208 330L211 334.5M234 334.5H211" stroke="black"/>
</svg>
