<svg width="402" height="874" viewBox="0 0 402 874" fill="none" xmlns="http://www.w3.org/2000/svg">
<rect width="402" height="874" fill="white"/>
<path d="M131.5 263.5V255L132.5 256L139 261L141.5 263.5H146H154L158 266L161.5 271.5L162.5 276V284L160 287H156.5L160 289.5L162.5 294.5V299V306.5H160H158L162.5 311.5V319V327.5H158L162.5 333V341V347.5V353.5L165 363.5L167 373.5L168 378H165L158 375.5L148 372.5L139 365L135.5 359.5L134 352L135.5 341V331L137.5 325.5V319L135.5 301V297L134 292.5V287V284L131.5 281V274V269V263.5Z" stroke="black"/>
</svg>
