<svg width="402" height="874" viewBox="0 0 402 874" fill="none" xmlns="http://www.w3.org/2000/svg">
<rect width="402" height="874" fill="white"/>
<path d="M249.5 270L247 274L247.5 277V279.5V282.5V286.5L251 287.5L249.5 288.5V291.5L247.5 297V301.5V306H252L249.5 309L247 315.5V322L247.5 326.5H249.5L247.5 331.5V338V349.5L244.5 359.5V374V377L249.5 375.5L261.5 371.5L270 366.5C271.833 364.667 275.5 360.7 275.5 359.5V348.5L273 333L270 323.5L271.5 318.5L273 304V299L275.5 297V294V288.5V286.5V282.5H278V279.5V274V270V266V259.5V256.5L273 259.5L268.5 262L259.5 264.5L252 266L249.5 270Z" stroke="black"/>
</svg>
