<svg width="402" height="874" viewBox="0 0 402 874" fill="none" xmlns="http://www.w3.org/2000/svg">
<rect width="402" height="874" fill="white"/>
<path d="M273 412L265.5 388H259V405L256.5 422L252 435.5L247 453.5L238.5 474.5L233.5 486L230 505L224.5 521.5V530.5V546V556.5L227.5 563L230 573L233.5 582.5L238.5 586.5L243 588.5L247 586.5L252 577.5L256.5 573L261 563V549.5L265.5 561L269.5 573L273 577.5L277.5 582.5L280.5 577.5L283.5 568.5L288 549.5L292 530.5L294 501.5L292 474.5L288 453.5L280.5 428.5L273 412Z" stroke="black"/>
</svg>
